Coordinates
version=1
nRows=16
nColumns=18
inDegrees=yes

Units are S.I. units (second, meters, Newtons, ...)
If the header above contains a line with 'inDegrees', this indicates whether rotational values are in degrees (yes) or radians (no).

endheader
time	ground_thorax_rot_x	ground_thorax_rot_y	ground_thorax_rot_z	ground_thorax_tx	ground_thorax_ty	ground_thorax_tz	clav_prot	clav_elev	scapula_abduction	scapula_elevation	scapula_upward_rot	scapula_winging	plane_elv	shoulder_elv	axial_rot	elbow_flexion	pro_sup
      0.00000000	      6.44338740	     -3.68042948	     -7.51601010	     -0.02345575	      0.01346819	      0.01730244	    -24.23155550	    -17.02754234	    -22.33159009	    -14.54968042	     17.77038184	     20.42422256	    -38.83394278	     23.93479102	     46.05530835	     25.16102579	   -165.89738485
      0.02000000	      6.40380955	     -3.68914968	     -7.50480742	     -0.02335177	      0.01350158	      0.01722467	    -24.20751441	    -17.01617330	    -22.29744325	    -14.53821544	     17.76290824	     20.41686465	    -38.71194917	     23.96510260	     45.98609896	     25.15833328	   -165.91595231
      0.04000000	      6.37394498	     -3.69330618	     -7.49782280	     -0.02324922	      0.01353507	      0.01717745	    -24.18652102	    -16.99914332	    -22.27373565	    -14.52173501	     17.75096444	     20.40726838	    -38.56320927	     23.99695854	     45.82089354	     25.15493185	   -165.93478270
      0.06000000	      6.34332273	     -3.69546563	     -7.48787303	     -0.02315042	      0.01357143	      0.01713584	    -24.16552176	    -16.98441685	    -22.25116091	    -14.50638487	     17.73649810	     20.39957676	    -38.42706063	     24.02963328	     45.66647329	     25.15407082	   -165.95152270
      0.08000000	      6.31714870	     -3.68931389	     -7.48238005	     -0.02304361	      0.01360223	      0.01711481	    -24.15389415	    -16.96923709	    -22.24988612	    -14.48985965	     17.71600158	     20.39368404	    -38.26614589	     24.05700292	     45.45399911	     25.14938357	   -165.97415994
      0.10000000	      6.27625504	     -3.68644012	     -7.47184912	     -0.02296226	      0.01362360	      0.01709832	    -24.13485327	    -16.95880877	    -22.23841330	    -14.47502384	     17.68932632	     20.39127826	    -38.11778795	     24.06941901	     45.28276793	     25.12824771	   -165.99584678
      0.12000000	      6.25861998	     -3.68419219	     -7.47609869	     -0.02280952	      0.01370236	      0.01707088	    -24.11337484	    -16.98571910	    -22.18034032	    -14.49728963	     17.70512807	     20.40228828	    -38.11075157	     24.11371067	     45.30949520	     25.15708535	   -165.99344143
      0.14000000	      6.20267674	     -3.68502472	     -7.46179003	     -0.02271722	      0.01369171	      0.01708140	    -24.09309178	    -16.98188173	    -22.17543064	    -14.48390042	     17.66366795	     20.40676994	    -37.98045141	     24.10968290	     45.12975621	     25.14643884	   -166.00598742
      0.16000000	      6.17245656	     -3.66255992	     -7.45370022	     -0.02262409	      0.01376391	      0.01714973	    -24.08832606	    -17.00981054	    -22.17036914	    -14.50057543	     17.64734548	     20.42651066	    -37.91492258	     24.10879936	     45.05465153	     25.11959890	   -166.03044790
      0.18000000	      6.13377110	     -3.63997101	     -7.45046260	     -0.02253419	      0.01380959	      0.01720015	    -24.07152285	    -17.04372771	    -22.15130248	    -14.51808870	     17.61819817	     20.45154901	    -37.85604519	     24.11032025	     44.96616133	     25.10469312	   -166.04465557
      0.20000000	      6.11944578	     -3.61326345	     -7.41239561	     -0.02251587	      0.01382775	      0.01729250	    -24.01976317	    -17.02403471	    -22.12373262	    -14.48216092	     17.53702516	     20.45173990	    -37.67225803	     24.15426683	     44.63037804	     25.07879997	   -166.05422187
      0.22000000	      6.04584504	     -3.53879080	     -7.41846730	     -0.02243410	      0.01385612	      0.01734649	    -24.02611961	    -17.08842776	    -22.12956619	    -14.52582436	     17.51794859	     20.49501532	    -37.75205635	     24.11304503	     44.56079201	     25.08724744	   -166.05254821
      0.24000000	      5.99517395	     -3.50003424	     -7.42058650	     -0.02236176	      0.01389606	      0.01745987	    -24.01146197	    -17.15094327	    -22.11193697	    -14.56268616	     17.48021232	     20.53919863	    -37.73500752	     24.10114634	     44.48319399	     25.08223818	   -166.04360671
      0.26000000	      5.92924632	     -3.46489342	     -7.43491334	     -0.02227827	      0.01398496	      0.01759296	    -23.99594359	    -17.27135873	    -22.07545987	    -14.64234391	     17.44225693	     20.61852844	    -37.77770072	     24.09847391	     44.66235248	     25.06242662	   -166.00759811
      0.28000000	      5.96884056	     -3.39581911	     -7.40055703	     -0.02233557	      0.01400773	      0.01779432	    -23.91970559	    -17.22579906	    -22.03126650	    -14.57973006	     17.33424972	     20.60609838	    -37.49281259	     24.19481568	     44.19497225	     25.04470586	   -166.01915542
      0.30000000	      5.83036765	     -3.29418400	     -7.45441004	     -0.02223201	      0.01405626	      0.01789192	    -23.97985143	    -17.40028594	    -22.06886728	    -14.71784557	     17.35817603	     20.71282397	    -37.78132323	     24.08517977	     44.52812629	     25.09542459	   -165.98773920
